<?xml version="1.0" encoding="UTF-8"?>
<svg xmlns="http://www.w3.org/2000/svg" xmlns:xlink="http://www.w3.org/1999/xlink" width="56px" height="32px" viewBox="0 0 56 32" version="1.1">
<g id="surface1">
<path style=" stroke:none;fill-rule:nonzero;fill:rgb(100%,40%,0%);fill-opacity:1;" d="M 2.796875 30.925781 L 0 30.925781 L 4.304688 22.609375 L 7.394531 22.609375 L 11.507812 30.925781 L 8.402344 30.925781 L 7.773438 29.433594 L 3.457031 29.433594 Z M 7.027344 27.617188 L 5.695312 24.585938 L 4.289062 27.617188 Z M 7.027344 27.617188 "/>
<path style=" stroke:none;fill-rule:nonzero;fill:rgb(100%,40%,0%);fill-opacity:1;" d="M 12.140625 22.609375 L 14.820312 22.609375 L 14.820312 30.925781 L 12.140625 30.925781 Z M 12.140625 22.609375 "/>
<path style=" stroke:none;fill-rule:nonzero;fill:rgb(100%,40%,0%);fill-opacity:1;" d="M 16.183594 22.609375 L 18.863281 22.609375 L 18.863281 24.308594 L 16.183594 24.308594 Z M 16.183594 25.125 L 18.863281 25.125 L 18.863281 30.925781 L 16.183594 30.925781 Z M 16.183594 25.125 "/>
<path style=" stroke:none;fill-rule:nonzero;fill:rgb(100%,40%,0%);fill-opacity:1;" d="M 20.324219 22.601562 L 23.003906 22.601562 L 23.003906 25.953125 C 23.328125 25.632812 23.679688 25.382812 24.074219 25.222656 C 24.46875 25.0625 24.894531 24.972656 25.363281 24.972656 C 26.269531 24.972656 27.003906 25.265625 27.558594 25.851562 C 28.113281 26.4375 28.394531 27.214844 28.394531 28.164062 C 28.394531 29.042969 28.113281 29.746094 27.574219 30.273438 C 27.03125 30.800781 26.300781 31.066406 25.390625 31.066406 C 24.894531 31.066406 24.441406 30.976562 24.03125 30.785156 C 23.621094 30.609375 23.28125 30.332031 22.992188 29.980469 C 22.992188 30.171875 22.992188 30.347656 22.960938 30.507812 C 22.945312 30.667969 22.917969 30.800781 22.886719 30.917969 L 20.207031 30.917969 C 20.238281 30.816406 20.265625 30.667969 20.28125 30.507812 C 20.296875 30.347656 20.3125 30.15625 20.3125 29.953125 L 20.3125 22.601562 Z M 25.699219 28.046875 C 25.699219 27.535156 25.582031 27.140625 25.332031 26.832031 C 25.097656 26.539062 24.761719 26.394531 24.351562 26.394531 C 23.914062 26.394531 23.574219 26.539062 23.328125 26.820312 C 23.09375 27.097656 22.976562 27.523438 22.976562 28.0625 C 22.976562 28.574219 23.09375 28.972656 23.328125 29.25 C 23.5625 29.527344 23.898438 29.671875 24.324219 29.671875 C 24.746094 29.671875 25.070312 29.527344 25.316406 29.234375 C 25.566406 28.941406 25.699219 28.546875 25.699219 28.046875 Z M 25.699219 28.046875 "/>
<path style=" stroke:none;fill-rule:nonzero;fill:rgb(100%,40%,0%);fill-opacity:1;" d="M 34.511719 29.992188 C 34.265625 30.328125 33.925781 30.578125 33.515625 30.738281 C 33.105469 30.902344 32.625 30.988281 32.039062 30.988281 C 31.21875 30.988281 30.574219 30.84375 30.136719 30.550781 C 29.695312 30.257812 29.476562 29.847656 29.476562 29.304688 C 29.476562 28.574219 29.855469 28.046875 30.617188 27.722656 C 31.378906 27.402344 32.667969 27.226562 34.46875 27.210938 C 34.46875 27.195312 34.46875 27.183594 34.46875 27.152344 C 34.46875 27.125 34.46875 27.09375 34.46875 27.078125 C 34.46875 26.785156 34.382812 26.566406 34.207031 26.421875 C 34.03125 26.273438 33.765625 26.199219 33.398438 26.199219 C 33.078125 26.199219 32.828125 26.257812 32.652344 26.363281 C 32.476562 26.464844 32.375 26.625 32.34375 26.84375 L 29.871094 26.84375 C 29.886719 26.199219 30.195312 25.71875 30.777344 25.410156 C 31.378906 25.101562 32.289062 24.941406 33.515625 24.941406 C 34.6875 24.941406 35.566406 25.117188 36.152344 25.496094 C 36.722656 25.863281 37.015625 26.421875 37.015625 27.167969 L 37.015625 30.125 C 37.015625 30.300781 37.03125 30.460938 37.046875 30.5625 C 37.058594 30.679688 37.089844 30.785156 37.132812 30.871094 L 34.644531 30.871094 C 34.601562 30.738281 34.554688 30.59375 34.542969 30.445312 C 34.527344 30.300781 34.511719 30.152344 34.511719 29.992188 Z M 34.453125 28.339844 C 33.589844 28.339844 32.988281 28.398438 32.683594 28.515625 C 32.375 28.632812 32.214844 28.820312 32.214844 29.101562 C 32.214844 29.289062 32.289062 29.4375 32.449219 29.554688 C 32.59375 29.65625 32.8125 29.714844 33.09375 29.714844 C 33.546875 29.714844 33.882812 29.613281 34.117188 29.394531 C 34.351562 29.1875 34.453125 28.867188 34.453125 28.425781 Z M 34.453125 28.339844 "/>
<path style=" stroke:none;fill-rule:nonzero;fill:rgb(100%,40%,0%);fill-opacity:1;" d="M 38.242188 22.601562 L 40.921875 22.601562 L 40.921875 25.953125 C 41.242188 25.632812 41.59375 25.382812 41.992188 25.222656 C 42.386719 25.0625 42.8125 24.972656 43.277344 24.972656 C 44.1875 24.972656 44.917969 25.265625 45.476562 25.851562 C 46.03125 26.4375 46.308594 27.214844 46.308594 28.164062 C 46.308594 29.042969 46.03125 29.746094 45.488281 30.273438 C 44.949219 30.800781 44.214844 31.066406 43.308594 31.066406 C 42.8125 31.066406 42.355469 30.976562 41.945312 30.785156 C 41.535156 30.609375 41.199219 30.332031 40.90625 29.980469 C 40.90625 30.171875 40.894531 30.347656 40.878906 30.507812 C 40.863281 30.667969 40.835938 30.800781 40.804688 30.917969 L 38.125 30.917969 C 38.15625 30.816406 38.183594 30.667969 38.199219 30.507812 C 38.214844 30.347656 38.226562 30.15625 38.226562 29.953125 L 38.226562 22.601562 Z M 43.617188 28.046875 C 43.617188 27.535156 43.5 27.140625 43.25 26.832031 C 43.015625 26.539062 42.679688 26.394531 42.269531 26.394531 C 41.828125 26.394531 41.492188 26.539062 41.257812 26.820312 C 41.023438 27.097656 40.90625 27.523438 40.90625 28.0625 C 40.90625 28.574219 41.023438 28.972656 41.257812 29.25 C 41.492188 29.527344 41.828125 29.671875 42.253906 29.671875 C 42.664062 29.671875 43 29.527344 43.25 29.234375 C 43.5 28.941406 43.617188 28.546875 43.617188 28.046875 Z M 43.617188 28.046875 "/>
<path style=" stroke:none;fill-rule:nonzero;fill:rgb(100%,40%,0%);fill-opacity:1;" d="M 52.429688 29.992188 C 52.179688 30.328125 51.84375 30.578125 51.433594 30.738281 C 51.023438 30.902344 50.542969 30.988281 49.957031 30.988281 C 49.136719 30.988281 48.492188 30.84375 48.050781 30.550781 C 47.613281 30.257812 47.394531 29.847656 47.394531 29.304688 C 47.394531 28.574219 47.773438 28.046875 48.535156 27.722656 C 49.296875 27.402344 50.585938 27.226562 52.386719 27.210938 C 52.386719 27.195312 52.386719 27.183594 52.386719 27.152344 C 52.386719 27.125 52.386719 27.09375 52.386719 27.078125 C 52.386719 26.785156 52.296875 26.566406 52.121094 26.421875 C 51.945312 26.273438 51.683594 26.199219 51.316406 26.199219 C 50.996094 26.199219 50.746094 26.257812 50.570312 26.363281 C 50.394531 26.464844 50.292969 26.625 50.261719 26.84375 L 47.789062 26.84375 C 47.804688 26.199219 48.109375 25.71875 48.695312 25.410156 C 49.296875 25.101562 50.203125 24.941406 51.433594 24.941406 C 52.605469 24.941406 53.484375 25.117188 54.070312 25.496094 C 54.640625 25.863281 54.933594 26.421875 54.933594 27.167969 L 54.933594 30.125 C 54.933594 30.300781 54.949219 30.460938 54.964844 30.5625 C 54.976562 30.679688 55.007812 30.785156 55.050781 30.871094 L 52.5625 30.871094 C 52.519531 30.738281 52.472656 30.59375 52.460938 30.445312 C 52.445312 30.300781 52.429688 30.152344 52.429688 29.992188 Z M 52.371094 28.339844 C 51.507812 28.339844 50.921875 28.398438 50.601562 28.515625 C 50.292969 28.632812 50.132812 28.820312 50.132812 29.101562 C 50.132812 29.289062 50.203125 29.4375 50.367188 29.554688 C 50.511719 29.65625 50.730469 29.714844 51.011719 29.714844 C 51.464844 29.714844 51.800781 29.613281 52.035156 29.394531 C 52.269531 29.1875 52.371094 28.867188 52.371094 28.425781 Z M 52.371094 28.339844 "/>
<path style=" stroke:none;fill-rule:nonzero;fill:rgb(0%,0%,0%);fill-opacity:1;" d="M 15.90625 16.199219 C 15.757812 16.183594 15.527344 16.050781 15.363281 15.917969 C 13.796875 14.382812 15.804688 12.609375 18.144531 11.585938 L 18.144531 8.65625 C 18.6875 9.007812 18.996094 9.023438 19.011719 9.066406 L 20.796875 7.296875 L 20.195312 5.773438 C 25.421875 3.972656 27.515625 3.285156 31.761719 2.566406 L 31 1.847656 L 32.246094 1.144531 C 35.101562 2.082031 37.792969 2.332031 37.324219 4.734375 C 37.441406 3.109375 35.421875 2.492188 32.347656 1.628906 L 31.746094 1.996094 L 32.890625 2.933594 C 27.808594 3.8125 24.675781 4.804688 20.957031 6.09375 L 21.46875 7.414062 L 19.59375 9.273438 C 19.902344 9.359375 23.167969 10.445312 26.550781 8.085938 C 26.550781 8.085938 26.625 8.042969 26.625 8.011719 C 26.519531 7.851562 26.285156 7.660156 26.007812 7.414062 C 27.003906 7.484375 27.648438 8.351562 27.53125 9.257812 L 27.0625 9.257812 C 27.09375 8.964844 27.035156 8.640625 26.929688 8.4375 C 24.308594 10.355469 21.265625 10.632812 18.671875 9.726562 L 18.671875 11.996094 C 17.414062 12.433594 15.175781 13.824219 15.1875 15.171875 C 15.277344 15.800781 15.597656 16.035156 15.90625 16.199219 Z M 15.90625 16.199219 "/>
<path style=" stroke:none;fill-rule:nonzero;fill:rgb(100%,40%,0%);fill-opacity:1;" d="M 26.625 15.445312 C 23.8125 16.867188 21.121094 18.007812 16.976562 18.171875 C 11.574219 18.054688 10.738281 14.464844 13.289062 10.71875 C 15.703125 6.941406 19.539062 3.515625 25.628906 1.375 C 27.402344 0.746094 29.992188 0.0429688 32.496094 0 C 36.097656 -0.0273438 39.597656 1.085938 39.363281 4.539062 C 39.230469 7.1875 35.410156 10.90625 33.402344 13.585938 C 32.539062 14.757812 32.394531 15.519531 33.871094 15.445312 C 39.214844 15.09375 44.046875 13.25 48.542969 11.332031 C 45.496094 13.398438 29.789062 21.171875 29.730469 15.871094 C 29.742188 15.199219 30.050781 14.480469 30.5625 13.71875 C 31.0625 12.957031 31.75 12.167969 32.46875 11.363281 C 33.535156 10.148438 36.199219 7.21875 37.09375 5.460938 C 38.601562 2.183594 35.234375 2.019531 32.320312 0.996094 L 31.078125 1.699219 L 31.835938 2.417969 C 27.589844 3.117188 25.496094 3.820312 20.269531 5.621094 L 20.871094 7.144531 L 19.101562 8.902344 C 19.054688 8.859375 18.792969 8.84375 18.234375 8.492188 L 18.234375 11.421875 C 15.90625 12.445312 13.886719 14.21875 15.453125 15.753906 C 15.613281 15.886719 15.847656 16.019531 15.996094 16.03125 C 18.867188 17.644531 26.640625 15.445312 26.625 15.445312 Z M 26.625 15.445312 "/>
<path style=" stroke:none;fill-rule:nonzero;fill:rgb(100%,40%,0%);fill-opacity:1;" d="M 43.425781 17.347656 L 43.792969 17.347656 C 43.863281 17.347656 43.921875 17.335938 43.96875 17.320312 C 44.011719 17.304688 44.039062 17.277344 44.070312 17.246094 C 44.097656 17.203125 44.097656 17.171875 44.097656 17.128906 C 44.097656 17.070312 44.070312 17.011719 44.027344 16.984375 C 43.980469 16.9375 43.910156 16.925781 43.820312 16.925781 L 43.425781 16.925781 Z M 43.265625 18.082031 L 43.265625 16.777344 L 43.851562 16.777344 C 43.96875 16.777344 44.054688 16.792969 44.113281 16.808594 C 44.171875 16.835938 44.214844 16.867188 44.261719 16.9375 C 44.304688 16.996094 44.316406 17.054688 44.316406 17.128906 C 44.316406 17.21875 44.289062 17.304688 44.230469 17.363281 C 44.171875 17.421875 44.085938 17.464844 43.953125 17.480469 C 43.996094 17.496094 44.039062 17.523438 44.054688 17.539062 C 44.097656 17.582031 44.15625 17.640625 44.203125 17.714844 L 44.433594 18.066406 L 44.214844 18.066406 L 44.039062 17.804688 C 43.996094 17.714844 43.953125 17.65625 43.910156 17.613281 C 43.878906 17.570312 43.851562 17.539062 43.820312 17.523438 C 43.792969 17.511719 43.777344 17.496094 43.746094 17.496094 C 43.734375 17.496094 43.703125 17.496094 43.644531 17.496094 L 43.425781 17.496094 L 43.425781 18.082031 Z M 43.265625 18.082031 "/>
<path style=" stroke:none;fill-rule:nonzero;fill:rgb(100%,40%,0%);fill-opacity:1;" d="M 43.785156 18.683594 C 44.472656 18.683594 45.027344 18.128906 45.027344 17.441406 C 45.027344 16.753906 44.472656 16.195312 43.785156 16.195312 C 43.097656 16.195312 42.539062 16.753906 42.539062 17.441406 C 42.539062 18.128906 43.097656 18.683594 43.785156 18.683594 Z M 42.730469 17.441406 C 42.730469 16.855469 43.199219 16.386719 43.785156 16.386719 C 44.371094 16.386719 44.839844 16.855469 44.839844 17.441406 C 44.839844 18.011719 44.371094 18.496094 43.785156 18.496094 C 43.199219 18.496094 42.730469 18.027344 42.730469 17.441406 Z M 42.730469 17.441406 "/>
</g>
</svg>
